{"title":"Rocio Durcal - Amor Eterno (DVD Clean).VOB","uid":9941224,"size":287645696,"categoryP":"video","categoryS":"music_videos","magnet":"?xt=urn:btih:4efa2d9b9a339aa8285742094cc48be3f49390ae&amp;dn=Rocio+Durcal+-+Amor+Eterno+%28DVD+Clean%29.VOB&amp;tr=udp%3A%2F%2Ftracker.openbittorrent.com%3A80&amp;tr=udp%3A%2F%2Fopen.demonii.com%3A1337&amp;tr=udp%3A%2F%2Ftracker.coppersurfer.tk%3A6969&amp;tr=udp%3A%2F%2Fexodus.desync.com%3A6969","seeders":0,"leechers":1,"uploader":"esteban161092","files":1,"time":1397248287,"description":"General\nFormat                           : MPEG-PS\nFile size                        : 274 MiB\nDuration                         : 5mn 44s\nOverall bit rate                 : 6 673 Kbps\n\nVideo\nID                               : 224 (0xE0)\nFormat                           : MPEG Video\nFormat version                   : Version 2\nFormat profile                   : Main@Main\nFormat settings, BVOP            : Yes\nFormat settings, Matrix          : Default\nFormat settings, GOP             : M=3, N=15\nDuration                         : 5mn 44s\nBit rate mode                    : Constant\nBit rate                         : 5 000 Kbps\nWidth                            : 720 pixels\nHeight                           : 480 pixels\nDisplay aspect ratio             : 4:3\nFrame rate                       : 29.970 fps\nStandard                         : NTSC\nColor space                      : YUV\nChroma subsampling               : 4:2:0\nBit depth                        : 8 bits\nScan type                        : Interlaced\nScan order                       : Top Field First\nCompression mode                 : Lossy\nBits/(Pixel*Frame)               : 0.483\nStream size                      : 206 MiB (75%)\n\nAudio\nID                               : 160 (0xA0)\nFormat                           : PCM\nFormat settings, Endianness      : Big\nFormat settings, Sign            : Signed\nMuxing mode                      : DVD-Video\nDuration                         : 5mn 44s\nBit rate mode                    : Constant\nBit rate                         : 1 536 Kbps\nChannel(s)                       : 2 channels\nChannel positions                : Front: L R\nSampling rate                    : 48.0 KHz\nBit depth                        : 16 bits\nVideo delay                      : -67ms\nStream size                      : 63.1 MiB (23%)\n\nMenu\n","torrent":{"xt":"urn:btih:4efa2d9b9a339aa8285742094cc48be3f49390ae","amp;dn":"Rocio+Durcal+-+Amor+Eterno+%28DVD+Clean%29.VOB","amp;tr":["udp%3A%2F%2Ftracker.openbittorrent.com%3A80","udp%3A%2F%2Fopen.demonii.com%3A1337","udp%3A%2F%2Ftracker.coppersurfer.tk%3A6969","udp%3A%2F%2Fexodus.desync.com%3A6969"],"infoHash":"4efa2d9b9a339aa8285742094cc48be3f49390ae","infoHashBuffer":{"type":"Buffer","data":[78,250,45,155,154,51,154,168,40,87,66,9,76,196,139,227,244,147,144,174]},"announce":[],"urlList":[]}}